<svg width="105" height="24" viewBox="0 0 105 24" fill="none" xmlns="http://www.w3.org/2000/svg">
<g id="Logo" clip-path="url(#clip0_5065_374)">
<path id="Vector" d="M24.0806 7.92912C24.5148 8.48861 24.15 9.25847 23.4898 9.01453C22.7401 8.73703 21.4891 8.5468 20.6431 8.5468C19.918 8.5468 19.2175 8.6587 18.5596 8.86459C16.5364 9.50913 14.3119 9.58969 12.1187 8.97425C12.1052 8.96977 12.0896 8.9653 12.0739 8.96082C8.98328 8.0813 6.5506 5.99327 5.13621 3.34575C4.80051 2.71688 5.01983 1.93136 5.62856 1.57104C8.19999 0.0536982 11.3533 -0.445369 14.4439 0.431915C16.8766 1.12345 18.9042 2.5647 20.3455 4.44012C20.9497 5.22789 21.6547 5.92837 22.4514 6.51696C22.9773 6.90413 23.6823 7.41215 24.0829 7.92912H24.0806Z" fill="#45A824" style="fill:#45A824;fill:color(display-p3 0.2706 0.6588 0.1412);fill-opacity:1;"/>
<path id="Vector_2" d="M2.02773 2.33867C2.28957 1.68742 3.24518 1.79484 3.36603 2.48637C3.50479 3.2719 3.78006 4.04848 4.2008 4.78029C4.56335 5.40916 5.0087 5.9597 5.51448 6.42744C7.07659 7.86198 8.25824 9.74635 8.82892 11.9508C8.8334 11.9642 8.83563 11.9798 8.84011 11.9955C9.63459 15.1063 9.06391 18.2462 7.50404 20.7795C7.13478 21.3816 6.35149 21.5807 5.73828 21.2294C3.15566 19.7523 1.15044 17.2704 0.355962 14.1596C-0.268432 11.7135 -0.0468732 9.24504 0.837125 7.07197C1.20863 6.15888 1.45704 5.20327 1.55999 4.22304C1.62937 3.57626 1.78603 2.94292 2.02773 2.3409V2.33867Z" fill="#E3DD16" style="fill:#E3DD16;fill:color(display-p3 0.8902 0.8667 0.0863);fill-opacity:1;"/>
<path id="Vector_3" d="M8.23809 23.9933C7.54208 24.0918 7.16163 23.21 7.70098 22.7602C8.31418 22.2499 8.84906 21.6233 9.27427 20.8915C9.63906 20.2648 9.89419 19.6024 10.0464 18.931C10.5096 16.8609 11.557 14.8982 13.184 13.3025C13.1952 13.2913 13.2064 13.2824 13.2176 13.2712C15.5204 11.0332 18.526 9.96346 21.5003 10.053C22.2053 10.0731 22.7692 10.6528 22.7715 11.3599C22.7782 14.3365 21.6256 17.3107 19.325 19.5487C17.5122 21.3122 15.2653 22.3484 12.9378 22.6662C11.9621 22.8005 11.0087 23.0601 10.1068 23.4584C9.51373 23.7203 8.88486 23.9015 8.24257 23.9911L8.23809 23.9933Z" fill="#9ECC14" style="fill:#9ECC14;fill:color(display-p3 0.6196 0.8000 0.0784);fill-opacity:1;"/>
<path id="Vector_4" d="M49.5075 4.37753C49.5075 4.70427 49.3777 5.01535 49.1472 5.24586C48.9189 5.47638 48.6078 5.60618 48.2833 5.60842H32.2125C31.8879 5.60842 31.5791 5.47638 31.3486 5.24586C31.1203 5.01535 30.9905 4.70204 30.9883 4.37753C30.9883 4.05079 31.1181 3.73747 31.3464 3.50696C31.5746 3.27645 31.8857 3.14665 32.2102 3.14441H48.2811C48.6056 3.14441 48.9144 3.27421 49.1449 3.50696C49.3732 3.73747 49.503 4.05079 49.5053 4.37753H49.5075Z" fill="white" style="fill:white;fill-opacity:1;"/>
<path id="Vector_5" d="M49.5077 12.0873C49.5077 12.414 49.3779 12.7273 49.1474 12.9579C48.9191 13.1884 48.608 13.3182 48.2835 13.3204H32.2127C31.8882 13.3204 31.5771 13.1906 31.3488 12.9579C31.1205 12.7273 30.9907 12.414 30.9907 12.0873C30.9907 11.7605 31.1205 11.4495 31.351 11.219C31.5793 10.9884 31.8904 10.8586 32.2149 10.8586H48.2858C48.6103 10.8586 48.9191 10.9884 49.1496 11.219C49.3779 11.4495 49.5077 11.7628 49.5099 12.0873H49.5077Z" fill="white" style="fill:white;fill-opacity:1;"/>
<path id="Vector_6" d="M49.5075 19.7926C49.5075 20.1194 49.3777 20.4327 49.1472 20.6632C48.9189 20.8937 48.6078 21.0235 48.2833 21.0257H32.2125C31.8879 21.0257 31.5791 20.8959 31.3486 20.6654C31.1203 20.4349 30.9905 20.1216 30.9883 19.7971C30.9883 19.4703 31.1181 19.157 31.3464 18.9265C31.5746 18.696 31.8857 18.5662 32.2102 18.564H48.2811C48.6056 18.564 48.9144 18.696 49.1449 18.9265C49.3732 19.157 49.503 19.4703 49.5053 19.7948L49.5075 19.7926Z" fill="white" style="fill:white;fill-opacity:1;"/>
<path id="Vector_7" d="M67.1049 20.6632C66.8744 20.8938 66.5633 21.0236 66.241 21.0236C65.9187 21.0236 65.6054 20.8938 65.3772 20.6632L55.9396 13.7949C55.7696 13.6226 55.6509 13.401 55.6039 13.1616C55.5569 12.9221 55.5816 12.6737 55.6733 12.4477C55.7651 12.2216 55.9217 12.0292 56.1232 11.8926C56.3246 11.7561 56.5596 11.6845 56.8035 11.6845C56.8192 11.6845 56.8371 11.6845 56.8527 11.6845H62.1724C62.94 11.6465 63.6629 11.3108 64.1933 10.7468C64.7237 10.1851 65.0213 9.43758 65.0213 8.65877C65.0213 7.88219 64.7304 7.13247 64.2022 6.56627C63.6741 6.00006 62.9534 5.66213 62.1858 5.61961H53.8762C53.5517 5.61961 53.2406 5.4898 53.0124 5.25705C52.7819 5.0243 52.6543 4.71099 52.6543 4.38201C52.6543 4.05303 52.7841 3.73971 53.0124 3.50696C53.2406 3.27421 53.5517 3.14441 53.8762 3.14441H62.0202C62.1343 3.14441 62.2485 3.14441 62.3559 3.1556C63.739 3.24288 65.0348 3.86056 65.9837 4.88107C66.9326 5.90159 67.4607 7.25109 67.4607 8.65206C67.4607 10.053 66.9326 11.4003 65.9837 12.423C65.0348 13.4436 63.7367 14.0612 62.3559 14.1485C62.244 14.1552 62.1299 14.1597 62.0202 14.1597H61.3645C61.3152 14.1597 61.266 14.1754 61.2235 14.2022C61.181 14.2313 61.1496 14.2694 61.1317 14.3164C61.1116 14.3634 61.1071 14.4148 61.1161 14.4641C61.125 14.5133 61.1496 14.5581 61.1854 14.5939L67.1026 18.9132C67.3309 19.1459 67.4585 19.4592 67.4585 19.7882C67.4585 20.1172 67.3309 20.4305 67.1026 20.6632H67.1049Z" fill="white" style="fill:white;fill-opacity:1;"/>
<path id="Vector_8" d="M98.1412 5.43382C99.1953 5.43382 100.207 5.85679 100.952 6.60651C101.697 7.35623 102.116 8.37451 102.118 9.43531V14.7483C102.118 15.809 101.697 16.8273 100.952 17.577C100.207 18.3268 99.1975 18.7497 98.1434 18.7497H94.8424C93.7883 18.7497 92.779 18.3268 92.0338 17.577C91.2885 16.8273 90.87 15.809 90.8678 14.7483V9.43531C90.8678 8.37451 91.2885 7.35623 92.0338 6.60651C92.779 5.85679 93.7883 5.43382 94.8424 5.43382H98.1434H98.1412ZM98.1412 2.78406H94.8402C93.0878 2.78406 91.4071 3.48454 90.1673 4.73333C88.9275 5.97988 88.2314 7.67179 88.2314 9.43754V14.7505C88.2314 16.514 88.9275 18.2059 90.1673 19.4547C91.4071 20.7013 93.0878 21.404 94.8402 21.404H98.1412C99.8935 21.404 101.574 20.7035 102.814 19.4547C104.054 18.2082 104.75 16.5162 104.75 14.7505V9.43754C104.75 7.67402 104.054 5.98212 102.814 4.73333C101.574 3.48678 99.8958 2.78406 98.1412 2.78406Z" fill="white" style="fill:white;fill-opacity:1;"/>
<path id="Vector_9" d="M85.4206 19.7523C85.4206 19.0496 84.8521 18.4811 84.1494 18.4811H76.9476C75.936 18.4811 74.967 18.0738 74.2531 17.3554C73.5392 16.6348 73.1363 15.6591 73.1341 14.643V9.54492C73.1341 8.52665 73.5369 7.55089 74.2531 6.83027C74.967 6.10964 75.9383 5.70457 76.9476 5.70457H84.1494C84.8521 5.70457 85.4206 5.13612 85.4206 4.4334C85.4206 3.73068 84.8521 3.16223 84.1494 3.16223H76.9476C75.2669 3.16223 73.6533 3.83362 72.4649 5.03094C71.2766 6.22825 70.6074 7.85078 70.6074 9.54269V14.6408C70.6074 16.3327 71.2743 17.9575 72.4649 19.1525C73.6533 20.3498 75.2669 21.0212 76.9476 21.0212H84.1494C84.8521 21.0212 85.4206 20.4528 85.4206 19.7501V19.7523Z" fill="white" style="fill:white;fill-opacity:1;"/>
</g>
<defs>
<clipPath id="clip0_5065_374">
<rect width="105" height="24" fill="white" style="fill:white;fill-opacity:1;"/>
</clipPath>
</defs>
</svg>
